#N canvas 324 50 1513 760 10;
#X obj 144 546 linkuino, f 114;
#X obj 36 532 bng 15 250 50 0 empty empty update 17 7 0 10 -262144
-1 -1;
#X floatatom 37 496 5 0 99 2 Serial_port - -, f 5;
#X floatatom 75 596 5 0 0 0 Version - -, f 5;
#X floatatom 120 596 5 0 0 0 - - -, f 5;
#X obj 144 339 vsl 15 100 0 100 0 0 empty empty empty 0 -9 0 10 -262144
-1 -1 0 1;
#X obj 144 472 t b f;
#X floatatom 144 312 5 0 0 2 Pin_2 - -, f 5;
#X obj 193 341 vsl 15 100 0 100 0 0 empty empty empty 0 -9 0 10 -262144
-1 -1 0 1;
#X obj 193 473 t b f;
#X floatatom 193 312 5 0 0 2 Pin_3 - -, f 5;
#X obj 243 341 vsl 15 100 0 100 0 0 empty empty empty 0 -9 0 10 -262144
-1 -1 0 1;
#X obj 243 473 t b f;
#X floatatom 243 313 5 0 0 2 Pin_4 - -, f 5;
#X obj 298 341 vsl 15 100 0 100 0 0 empty empty empty 0 -9 0 10 -262144
-1 -1 0 1;
#X obj 298 473 t b f;
#X floatatom 298 313 5 0 0 2 Pin_5 - -, f 5;
#X obj 351 341 vsl 15 100 0 100 0 0 empty empty empty 0 -9 0 10 -262144
-1 -1 0 1;
#X obj 351 473 t b f;
#X floatatom 351 313 5 0 0 2 Pin_6 - -, f 5;
#X obj 403 341 vsl 15 100 0 100 0 0 empty empty empty 0 -9 0 10 -262144
-1 -1 0 1;
#X obj 403 473 t b f;
#X floatatom 403 313 5 0 0 2 Pin_7 - -, f 5;
#X obj 591 318 vradio 15 1 0 2 empty empty Pin_5 -4 -8 0 10 -262144
-1 -1 0;
#X obj 511 318 vradio 15 1 0 2 empty empty Pin_3 -4 -8 0 10 -262144
-1 -1 0;
#X obj 630 318 vradio 15 1 0 2 empty empty Pin_6 -4 -8 0 10 -262144
-1 -1 0;
#X obj 552 318 vradio 15 1 0 2 empty empty Pin_4 -4 -8 0 10 -262144
-1 -1 0;
#X obj 669 319 vradio 15 1 0 2 empty empty Pin_7 -4 -8 0 10 -262144
-1 -1 0;
#X obj 470 316 vradio 15 1 0 2 empty empty Pin_2 -4 -8 0 10 -262144
-1 -1 0;
#X obj 713 296 tgl 15 0 empty empty Pin_9 -4 -8 0 10 -262144 -1 -1
0 1;
#X obj 757 296 tgl 15 0 empty empty Pin_10 -4 -8 0 10 -262144 -1 -1
0 1;
#X obj 805 296 tgl 15 0 empty empty Pin_11 -4 -8 0 10 -262144 -1 -1
0 1;
#X obj 848 296 tgl 15 0 empty empty Pin_12 -4 -8 0 10 -262144 -1 -1
0 1;
#X obj 894 296 tgl 15 0 empty empty Pin_13_(led) -4 -8 0 10 -262144
-1 -1 0 1;
#X obj 923 392 tgl 15 0 empty empty XXX 17 7 0 10 -262144 -1 -1 0 1
;
#X obj 700 433 t b f;
#X obj 744 445 t b f;
#X obj 787 458 t b f;
#X obj 834 468 t b f;
#X obj 880 477 t b f;
#X obj 923 497 t b f;
#X text 218 264 PWM Outputs;
#X text 771 237 Digital Outputs;
#X text 480 247 Up = DC Motor / full range;
#X text 479 225 PWM Configuration;
#X text 480 268 Down = Servo;
#X floatatom 939 594 5 0 0 0 - - -, f 5;
#X text 858 594 Identifiant;
#X text 141 170 Linkuino v1.5 (c) B.A.T. Cave 2016;
#X obj 752 680 lnka, f 17;
#X obj 752 641 bng 15 250 50 0 empty empty empty 17 7 0 10 -262144
-1 -1;
#X floatatom 891 666 5 0 0 0 - - -, f 5;
#X obj 755 746 hsl 128 15 0 127 0 0 empty empty empty -2 -8 0 10 -262144
-1 -1 0 1;
#X obj 993 664 bng 15 250 50 0 empty empty empty 17 7 0 10 -262144
-1 -1;
#X obj 1070 735 tgl 15 0 empty empty empty 17 7 0 10 -262144 -1 -1
0 1;
#X obj 1100 734 tgl 15 0 empty empty empty 17 7 0 10 -262144 -1 -1
0 1;
#X obj 1131 735 tgl 15 0 empty empty empty 17 7 0 10 -262144 -1 -1
0 1;
#X obj 1041 734 tgl 15 0 empty empty empty 17 7 0 10 -262144 -1 -1
0 1;
#X obj 1159 734 tgl 15 0 empty empty empty 17 7 0 10 -262144 -1 -1
0 1;
#X obj 1190 734 tgl 15 0 empty empty empty 17 7 0 10 -262144 -1 -1
0 1;
#X obj 1038 679 lnkd, f 22;
#X text 646 680 Analog input;
#X text 1212 678 Digital input;
#X connect 0 0 3 0;
#X connect 0 1 4 0;
#X connect 0 2 46 0;
#X connect 1 0 0 0;
#X connect 2 0 0 1;
#X connect 5 0 6 0;
#X connect 6 0 0 0;
#X connect 6 1 0 2;
#X connect 7 0 5 0;
#X connect 8 0 9 0;
#X connect 9 0 0 0;
#X connect 9 1 0 3;
#X connect 10 0 8 0;
#X connect 11 0 12 0;
#X connect 12 0 0 0;
#X connect 12 1 0 4;
#X connect 13 0 11 0;
#X connect 14 0 15 0;
#X connect 15 0 0 0;
#X connect 15 1 0 5;
#X connect 16 0 14 0;
#X connect 17 0 18 0;
#X connect 18 0 0 0;
#X connect 18 1 0 6;
#X connect 19 0 17 0;
#X connect 20 0 21 0;
#X connect 21 0 0 0;
#X connect 21 1 0 7;
#X connect 22 0 20 0;
#X connect 23 0 0 11;
#X connect 24 0 0 9;
#X connect 25 0 0 12;
#X connect 26 0 0 10;
#X connect 27 0 0 13;
#X connect 28 0 0 8;
#X connect 29 0 35 0;
#X connect 30 0 36 0;
#X connect 31 0 37 0;
#X connect 32 0 38 0;
#X connect 33 0 39 0;
#X connect 34 0 40 0;
#X connect 35 0 0 0;
#X connect 35 1 0 14;
#X connect 36 0 0 0;
#X connect 36 1 0 15;
#X connect 37 0 0 0;
#X connect 37 1 0 16;
#X connect 38 0 0 0;
#X connect 38 1 0 17;
#X connect 39 0 0 0;
#X connect 39 1 0 18;
#X connect 40 0 0 0;
#X connect 40 1 0 19;
#X connect 46 0 49 1;
#X connect 46 0 60 1;
#X connect 49 0 52 0;
#X connect 50 0 49 0;
#X connect 51 0 49 2;
#X connect 53 0 60 0;
#X connect 60 0 57 0;
#X connect 60 1 54 0;
#X connect 60 2 55 0;
#X connect 60 3 56 0;
#X connect 60 4 58 0;
#X connect 60 5 59 0;
#X coords 0 760 1 759 0 0 0;
